<svg width="18" height="15" viewBox="0 0 18 15" fill="none" xmlns="http://www.w3.org/2000/svg">
<path d="M3.96923 8.26805L3.96916 8.26812L12.3071 0.369372L12.2354 0.439093L12.3069 0.369181L12.3069 0.369205C12.1429 0.200711 11.857 0.201045 11.6926 0.369181L3.96923 8.26805ZM4.58357 8.89059L12.0001 1.30486L16.0555 5.45251L9.41736 12.2429C9.24651 12.417 9.02143 12.5123 8.7814 12.5123H7.2194C6.97942 12.5123 6.75439 12.4171 6.58356 12.243C6.58352 12.243 6.58348 12.243 6.58344 12.2429L4.58369 10.1977C4.41337 10.0229 4.3194 9.79165 4.3194 9.54409C4.3194 9.29644 4.41344 9.0646 4.58357 8.8906L4.51207 8.82068L4.58357 8.89059Z" fill="#FA2853" stroke="#FA2853" stroke-width="0.2"/>
<path d="M11.0259 11.2183L11.0263 11.2187C11.1107 11.3042 11.2219 11.348 11.3334 11.348C11.4449 11.348 11.5562 11.3043 11.6403 11.2183C11.8083 11.0465 11.8083 10.7683 11.6403 10.5965L6.97359 5.82375C6.80436 5.65068 6.52848 5.65068 6.35925 5.82375C6.19125 5.99557 6.19125 6.2738 6.35925 6.44562L11.0259 11.2183Z" fill="#FA2853" stroke="#FA2853" stroke-width="0.2"/>
<path d="M1.33333 13.3934H4.66667C4.908 13.3934 5.1 13.1938 5.1 12.9525C5.1 12.7112 4.908 12.5116 4.66667 12.5116H1.33333C1.092 12.5116 0.9 12.7112 0.9 12.9525C0.9 13.1938 1.092 13.3934 1.33333 13.3934Z" fill="#FA2853" stroke="#FA2853" stroke-width="0.2"/>
<path d="M4.66659 14.757H10.6666C10.9079 14.757 11.0999 14.5574 11.0999 14.3161C11.0999 14.0748 10.9079 13.8752 10.6666 13.8752H4.66659C4.42525 13.8752 4.23325 14.0748 4.23325 14.3161C4.23325 14.5574 4.42525 14.757 4.66659 14.757Z" fill="#FA2853" stroke="#FA2853" stroke-width="0.2"/>
</svg>
