<svg width="10" height="10" viewBox="0 0 10 10" fill="none" xmlns="http://www.w3.org/2000/svg">
<path d="M5.62663 4.99997L9.31107 1.31553C9.38388 1.23051 9.42193 1.12114 9.41761 1.00928C9.41329 0.897427 9.36692 0.791321 9.28776 0.712168C9.20861 0.633015 9.10251 0.586645 8.99065 0.582324C8.87879 0.578004 8.76943 0.616051 8.6844 0.688863L4.99996 4.37331L1.31552 0.684418C1.23183 0.600728 1.11832 0.553711 0.999961 0.553711C0.881605 0.553711 0.768096 0.600728 0.684405 0.684418C0.600715 0.768109 0.553698 0.881618 0.553698 0.999974C0.553698 1.11833 0.600715 1.23184 0.684405 1.31553L4.37329 4.99997L0.684405 8.68442C0.63788 8.72426 0.600093 8.77329 0.573416 8.82843C0.546739 8.88357 0.531748 8.94363 0.529384 9.00484C0.52702 9.06605 0.537333 9.12708 0.559677 9.18412C0.582022 9.24115 0.615914 9.29295 0.659227 9.33626C0.702541 9.37958 0.754339 9.41347 0.811373 9.43581C0.868406 9.45816 0.929443 9.46847 0.990651 9.46611C1.05186 9.46374 1.11192 9.44875 1.16706 9.42208C1.2222 9.3954 1.27123 9.35761 1.31107 9.31109L4.99996 5.62664L8.6844 9.31109C8.76943 9.3839 8.87879 9.42194 8.99065 9.41762C9.10251 9.4133 9.20861 9.36693 9.28776 9.28778C9.36692 9.20863 9.41329 9.10252 9.41761 8.99066C9.42193 8.87881 9.38388 8.76944 9.31107 8.68442L5.62663 4.99997Z" fill="#011226"/>
</svg>
