<svg width="17" height="18" viewBox="0 0 17 18" fill="none" xmlns="http://www.w3.org/2000/svg">
<path d="M14.1037 6.89014C14.1037 6.89014 13.6512 12.5026 13.3887 14.8668C13.2637 15.996 12.5662 16.6576 11.4237 16.6785C9.2495 16.7176 7.07283 16.7201 4.8995 16.6743C3.80033 16.6518 3.1145 15.9818 2.992 14.8726C2.72783 12.4876 2.27783 6.89014 2.27783 6.89014" stroke="#011226" stroke-opacity="0.6" stroke-width="1.5" stroke-linecap="round" stroke-linejoin="round"/>
<path d="M15.2567 4.19975H1.125" stroke="#011226" stroke-opacity="0.6" stroke-width="1.5" stroke-linecap="round" stroke-linejoin="round"/>
<path d="M12.5335 4.19974C11.8793 4.19974 11.316 3.73724 11.1877 3.0964L10.9852 2.08307C10.8602 1.61557 10.4368 1.29224 9.95432 1.29224H6.42682C5.94432 1.29224 5.52099 1.61557 5.39599 2.08307L5.19349 3.0964C5.06516 3.73724 4.50182 4.19974 3.84766 4.19974" stroke="#011226" stroke-opacity="0.6" stroke-width="1.5" stroke-linecap="round" stroke-linejoin="round"/>
</svg>
