<svg width="18" height="17" viewBox="0 0 18 17" fill="none" xmlns="http://www.w3.org/2000/svg">
<path fill-rule="evenodd" clip-rule="evenodd" d="M6.63837 3.41691C6.63837 4.8734 5.45689 6.0558 3.99948 6.0558C2.54208 6.0558 1.3606 4.8734 1.3606 3.41691C1.3606 1.95951 2.54208 0.7771 3.99948 0.7771C5.45689 0.7771 6.63837 1.95951 6.63837 3.41691Z" stroke="#011226" stroke-width="1.5" stroke-linecap="round" stroke-linejoin="round"/>
<path d="M10.2932 3.41694H16.6386" stroke="#011226" stroke-width="1.5" stroke-linecap="round" stroke-linejoin="round"/>
<path fill-rule="evenodd" clip-rule="evenodd" d="M11.3611 12.6437C11.3611 11.1862 12.5426 10.0048 14 10.0048C15.4574 10.0048 16.6389 11.1862 16.6389 12.6437C16.6389 14.1011 15.4574 15.2825 14 15.2825C12.5426 15.2825 11.3611 14.1011 11.3611 12.6437Z" stroke="#011226" stroke-width="1.5" stroke-linecap="round" stroke-linejoin="round"/>
<path d="M7.70621 12.6437H1.36084" stroke="#011226" stroke-width="1.5" stroke-linecap="round" stroke-linejoin="round"/>
</svg>
