<svg width="162" height="42" viewBox="0 0 162 42" fill="none" xmlns="http://www.w3.org/2000/svg">
<path d="M7.79994 19.6281L7.79994 19.6281L7.79485 19.6269C7.13947 19.4726 6.49072 19.2214 6.01489 18.8321C5.55683 18.4573 5.25299 17.9529 5.25299 17.2269C5.25299 16.4837 5.56083 15.8617 6.09849 15.4165C6.64279 14.9657 7.44804 14.6776 8.45282 14.6776C10.1641 14.6776 11.5165 15.7051 11.6133 17.0592L11.6464 17.5236H12.112H14.6328H15.1509L15.1324 17.0057C15.0659 15.1424 14.2266 13.7136 12.9674 12.7622C11.7203 11.82 10.0835 11.3601 8.41216 11.3601C4.59718 11.3601 1.6509 13.7467 1.6509 17.1862C1.6509 18.9001 2.23971 20.1734 3.22094 21.0976C4.18479 22.0054 5.48981 22.5414 6.87135 22.8763L6.87301 22.8767L9.59194 23.526C9.59275 23.5262 9.59357 23.5264 9.59439 23.5266C10.5166 23.7575 11.1738 24.1007 11.5958 24.5227C12.0062 24.9331 12.2219 25.4444 12.2219 26.0902C12.2219 26.8849 11.8819 27.5523 11.2457 28.0347C10.5982 28.5258 9.61633 28.8428 8.33085 28.8428C5.7941 28.8428 4.54939 27.3763 4.31 26.0425L4.23611 25.6309H3.81786H1.41907H0.872108L0.921075 26.1756C1.27789 30.1452 4.88452 32.1603 8.33085 32.1603C10.3888 32.1603 12.2504 31.5986 13.6102 30.5581C14.9797 29.5102 15.8239 27.9853 15.8239 26.1309C15.8239 24.9463 15.5158 23.7217 14.6845 22.6699C13.8531 21.6179 12.5359 20.7862 10.6046 20.3191C10.6042 20.319 10.6037 20.3189 10.6032 20.3187L7.79994 19.6281ZM29.1072 12.2667V11.7667H28.6072H24.7568V4.70436V4.20436H24.2568H21.6954H21.1954V4.70436V11.7667H18.2395H17.7395V12.2667V14.5028V15.0028H18.2395H21.1954V31.2537V31.7537H21.6954H24.2568H24.7568V31.2537V15.0028H28.6072H29.1072V14.5028V12.2667ZM46.081 11.7667H45.7492L45.6203 12.0725L39.5381 26.5036L33.5322 12.0745L33.4041 11.7667H33.0706H30.2653H29.5139L29.8041 12.4597L37.5708 31.0113L33.7467 40.2925L33.4623 40.983H34.209H36.9738H37.3054L37.4344 40.6775L49.347 12.4611L49.6402 11.7667H48.8864H46.081ZM52.3728 31.2537V31.7537H52.8728H55.4748H55.9748V31.2537V1.57373V1.07373H55.4748H52.8728H52.3728V1.57373V31.2537ZM79.5389 26.6637L79.038 26.4451L76.8018 25.4693L76.4015 25.2946L76.1746 25.6679C75.0171 27.5721 72.8742 28.6802 70.4219 28.6802C68.6107 28.6802 67.066 28.1419 65.9261 27.1555C64.9004 26.2679 64.1711 24.9908 63.8824 23.3376H79.6511H80.0987L80.1481 22.8928C80.1918 22.4992 80.1918 22.0696 80.1918 21.7123V21.6992C80.1918 18.5791 79.1673 15.988 77.4023 14.1744C75.637 12.3606 73.1654 11.3601 70.3406 11.3601C64.7088 11.3601 60.1641 15.3947 60.1641 21.6992C60.1641 27.9954 64.7004 32.1603 70.3406 32.1603C74.0755 32.1603 77.5104 30.3743 79.2767 27.1432L79.5389 26.6637ZM76.5643 20.1015H63.9283C64.2305 18.45 64.9503 17.192 65.9518 16.324C67.0653 15.3589 68.5688 14.8402 70.3406 14.8402C72.0845 14.8402 73.5658 15.3849 74.6509 16.3632C75.6265 17.2429 76.3111 18.4998 76.5643 20.1015Z" fill="black" stroke="black"/>
<path d="M86.6735 32.3831H89.384V1.46643H86.6735V32.3831Z" fill="black"/>
<path d="M105.123 32.8066C110.756 32.8066 115.499 28.6985 115.499 22.4305C115.499 16.1624 110.756 12.1814 105.123 12.1814C99.4904 12.1814 94.7894 16.1624 94.7894 22.4305C94.7894 28.6985 99.4904 32.8066 105.123 32.8066ZM105.123 30.2232C100.93 30.2232 97.4999 27.1315 97.4999 22.4305C97.4999 17.7718 100.93 14.7648 105.123 14.7648C109.274 14.7648 112.789 17.7718 112.789 22.4305C112.789 27.1315 109.274 30.2232 105.123 30.2232Z" fill="black"/>
<path d="M129.856 32.8066C135.489 32.8066 140.232 28.6985 140.232 22.4305C140.232 16.1624 135.489 12.1814 129.856 12.1814C124.223 12.1814 119.522 16.1624 119.522 22.4305C119.522 28.6985 124.223 32.8066 129.856 32.8066ZM129.856 30.2232C125.663 30.2232 122.233 27.1315 122.233 22.4305C122.233 17.7718 125.663 14.7648 129.856 14.7648C134.006 14.7648 137.522 17.7718 137.522 22.4305C137.522 27.1315 134.006 30.2232 129.856 30.2232Z" fill="black"/>
<path d="M162 32.3831L151.031 21.2023L159.501 12.6049H155.732L148.321 20.1858V1.46643H145.61V32.3831H148.321V22.2187L158.315 32.3831H162Z" fill="black"/>
</svg>
